# Blender 4.0.2
# www.blender.org
mtllib doors_upper.mtl
o doors_upper
v 1.242669 0.338447 -0.707106
v 1.242670 0.265916 -0.831469
v 0.287906 0.183166 -0.923879
v 0.287906 0.093377 -0.980784
v 0.287906 0.338447 -0.707106
v 0.287906 0.265916 -0.831469
v 0.287906 0.000000 -1.000000
v 1.242670 0.000000 -1.000000
v 1.242669 0.397971 -0.555570
v 0.287906 0.397971 -0.555570
v 1.242669 0.183166 -0.923879
v 1.242669 0.093377 -0.980784
v 1.253529 0.260244 -0.821666
v 1.253528 0.392299 -0.545767
v 1.253528 0.177494 -0.914076
v 0.298765 0.332775 -0.697304
v 0.298765 0.392299 -0.545767
v 0.298765 0.177494 -0.914076
v 0.298765 0.000000 -0.990197
v 0.298765 0.087705 -0.970982
v 1.253529 0.000000 -0.990197
v 1.253528 0.087705 -0.970982
v 0.298765 0.260244 -0.821666
v 1.253528 0.332775 -0.697304
v -1.242670 0.000000 -1.000000
v -1.242669 0.397971 -0.555570
v -0.287906 0.397971 -0.555570
v -1.242669 0.183166 -0.923879
v -0.287906 0.183166 -0.923879
v -1.242669 0.093377 -0.980784
v -1.242669 0.338447 -0.707106
v -0.287906 0.338447 -0.707106
v -0.287906 0.265916 -0.831469
v -1.242670 0.265916 -0.831469
v -0.287906 0.000000 -1.000000
v -0.287906 0.093377 -0.980784
v -1.253528 0.332775 -0.697304
v -1.253529 0.260244 -0.821666
v -0.298765 0.260244 -0.821666
v -0.298765 0.392299 -0.545767
v -0.298765 0.000000 -0.990197
v -0.298765 0.177494 -0.914076
v -0.298765 0.087705 -0.970982
v -1.253529 0.000000 -0.990197
v -1.253528 0.087705 -0.970982
v -0.298765 0.332775 -0.697304
v -1.253528 0.177494 -0.914076
v -1.253528 0.392299 -0.545767
v 1.242669 0.338447 0.707106
v 0.287906 0.265916 0.831469
v 1.242670 0.265916 0.831469
v 0.287906 0.000000 1.000000
v 1.242670 0.000000 1.000000
v 1.242669 0.397971 0.555570
v 1.242669 0.093377 0.980784
v 0.287906 0.093377 0.980784
v 0.287906 0.338447 0.707106
v 0.287906 0.397971 0.555570
v 1.242669 0.183166 0.923879
v 0.287906 0.183166 0.923879
v 1.253528 0.392299 0.545767
v 1.253528 0.177494 0.914076
v 0.298765 0.332775 0.697304
v 1.253528 0.087705 0.970982
v 0.298765 0.000000 0.990197
v 0.298765 0.177494 0.914076
v 0.298765 0.087705 0.970982
v 1.253529 0.000000 0.990197
v 0.298765 0.392299 0.545767
v 0.298765 0.260244 0.821666
v 1.253529 0.260244 0.821666
v 1.253528 0.332775 0.697304
v -0.287906 0.338447 0.707106
v -0.287906 0.265916 0.831469
v -0.287906 0.000000 1.000000
v -0.287906 0.397971 0.555570
v -1.242669 0.093377 0.980784
v -0.287906 0.093377 0.980784
v -1.242669 0.338447 0.707106
v -1.242670 0.265916 0.831469
v -1.242670 0.000000 1.000000
v -1.242669 0.397971 0.555570
v -1.242669 0.183166 0.923879
v -0.287906 0.183166 0.923879
v -1.253528 0.392299 0.545767
v -0.298765 0.332775 0.697304
v -0.298765 0.260244 0.821666
v -1.253529 0.000000 0.990197
v -0.298765 0.087705 0.970982
v -0.298765 0.000000 0.990197
v -0.298765 0.177494 0.914076
v -1.253528 0.087705 0.970982
v -0.298765 0.392299 0.545767
v -1.253528 0.177494 0.914076
v -1.253529 0.260244 0.821666
v -1.253528 0.332775 0.697304
vn -0.0000 0.8638 -0.5038
vn -0.0000 0.9308 -0.3656
vn -0.0000 0.7450 -0.6671
vn -0.0000 0.5353 -0.8447
vn -0.0000 0.2016 -0.9795
vn -0.0000 -0.8638 0.5038
vn -0.0000 -0.9308 0.3656
vn -0.0000 -0.7450 0.6671
vn -0.0000 -0.5353 0.8447
vn 0.7215 0.3706 -0.5848
vn -0.6714 -0.6402 0.3734
vn -0.7215 -0.3706 0.5848
vn 0.6714 0.6402 -0.3734
vn -0.6323 -0.7211 0.2832
vn -0.0000 0.8656 0.5008
vn 0.6323 0.7211 -0.2832
vn -0.7040 -0.5291 0.4738
vn 0.6839 0.1515 -0.7137
vn -0.0000 -1.0000 -0.0000
vn 0.7040 0.5291 -0.4738
vn -0.6839 -0.1515 0.7137
vn -0.0000 0.2140 -0.9768
vn -0.0000 -0.2140 0.9768
vn -0.7215 0.3706 -0.5848
vn 0.6714 -0.6402 0.3734
vn 0.7215 -0.3706 0.5848
vn -0.6714 0.6402 -0.3734
vn 0.6323 -0.7211 0.2832
vn -0.6323 0.7211 -0.2832
vn 0.7040 -0.5291 0.4738
vn -0.6839 0.1515 -0.7137
vn -0.7040 0.5291 -0.4738
vn 0.6839 -0.1515 0.7137
vn -0.0000 0.8638 0.5038
vn -0.0000 0.9308 0.3656
vn -0.0000 0.7450 0.6671
vn -0.0000 0.5353 0.8447
vn -0.0000 0.2016 0.9795
vn -0.0000 -0.8638 -0.5038
vn -0.0000 -0.9308 -0.3656
vn -0.0000 -0.7450 -0.6671
vn -0.0000 -0.5353 -0.8447
vn -0.0000 -0.2140 -0.9768
vn 0.7215 0.3706 0.5848
vn -0.6714 -0.6402 -0.3734
vn -0.7215 -0.3706 -0.5848
vn 0.6714 0.6402 0.3734
vn -0.6323 -0.7211 -0.2832
vn -0.0000 0.8656 -0.5008
vn 0.6323 0.7211 0.2832
vn -0.7040 -0.5291 -0.4738
vn 0.6839 0.1515 0.7137
vn 0.7040 0.5291 0.4738
vn -0.6839 -0.1515 -0.7137
vn -0.7215 0.3706 0.5848
vn 0.6714 -0.6402 -0.3734
vn 0.7215 -0.3706 -0.5848
vn -0.6714 0.6402 0.3734
vn 0.6323 -0.7211 -0.2832
vn -0.6323 0.7211 0.2832
vn 0.7040 -0.5291 -0.4738
vn -0.6839 0.1515 0.7137
vn -0.7040 0.5291 0.4738
vn 0.6839 -0.1515 -0.7137
vt 0.843750 0.500000
vt 0.875000 0.500000
vt 0.906250 0.500000
vt 0.812500 0.500000
vt 0.812500 0.500000
vt 0.781250 0.500000
vt 0.750000 0.500000
s 0
usemtl Material.001
f 6/1/1 5/2/1 1/2/1 2/1/1
f 5/2/2 10/3/2 9/3/2 1/2/2
f 3/4/3 6/1/3 2/1/3 11/5/3
f 4/6/4 3/4/4 11/5/4 12/6/4
f 7/7/5 4/6/5 12/6/5 8/7/5
f 23/1/6 13/1/6 24/2/6 16/2/6
f 16/2/7 24/2/7 14/3/7 17/3/7
f 18/4/8 15/5/8 13/1/8 23/1/8
f 20/6/9 22/6/9 15/5/9 18/4/9
f 11/5/10 15/5/10 22/6/10 12/6/10
f 6/1/11 23/1/11 16/2/11 5/2/11
f 4/6/12 20/6/12 18/4/12 3/4/12
f 1/2/13 24/2/13 13/1/13 2/1/13
f 5/2/14 16/2/14 17/3/14 10/3/14
f 10/3/15 17/3/15 14/3/15 9/3/15
f 9/3/16 14/3/16 24/2/16 1/2/16
f 3/4/17 18/4/17 23/1/17 6/1/17
f 12/6/18 22/6/18 21/7/18 8/7/18
f 8/7/19 21/7/19 19/7/19 7/7/19
f 2/1/20 13/1/20 15/5/20 11/5/20
f 7/7/21 19/7/21 20/6/21 4/6/21
f 19/7/22 20/6/22 22/6/22 21/7/22
f 32/2/2 31/2/2 26/3/2 27/3/2
f 29/4/3 28/5/3 34/1/3 33/1/3
f 36/6/4 30/6/4 28/5/4 29/4/4
f 35/7/5 25/7/5 30/6/5 36/6/5
f 33/1/1 34/1/1 31/2/1 32/2/1
f 39/1/6 46/2/6 37/2/6 38/1/6
f 46/2/7 40/3/7 48/3/7 37/2/7
f 42/4/8 39/1/8 38/1/8 47/5/8
f 43/6/9 42/4/9 47/5/9 45/6/9
f 41/7/23 43/6/23 45/6/23 44/7/23
f 28/5/24 30/6/24 45/6/24 47/5/24
f 33/1/25 32/2/25 46/2/25 39/1/25
f 36/6/26 29/4/26 42/4/26 43/6/26
f 31/2/27 34/1/27 38/1/27 37/2/27
f 32/2/28 27/3/28 40/3/28 46/2/28
f 27/3/15 26/3/15 48/3/15 40/3/15
f 26/3/29 31/2/29 37/2/29 48/3/29
f 29/4/30 33/1/30 39/1/30 42/4/30
f 30/6/31 25/7/31 44/7/31 45/6/31
f 25/7/19 35/7/19 41/7/19 44/7/19
f 34/1/32 28/5/32 47/5/32 38/1/32
f 35/7/33 36/6/33 43/6/33 41/7/33
f 50/1/34 51/1/34 49/2/34 57/2/34
f 57/2/35 49/2/35 54/3/35 58/3/35
f 60/4/36 59/5/36 51/1/36 50/1/36
f 56/6/37 55/6/37 59/5/37 60/4/37
f 52/7/38 53/7/38 55/6/38 56/6/38
f 70/1/39 63/2/39 72/2/39 71/1/39
f 63/2/40 69/3/40 61/3/40 72/2/40
f 66/4/41 70/1/41 71/1/41 62/5/41
f 67/6/42 66/4/42 62/5/42 64/6/42
f 65/7/43 67/6/43 64/6/43 68/7/43
f 59/5/44 55/6/44 64/6/44 62/5/44
f 50/1/45 57/2/45 63/2/45 70/1/45
f 56/6/46 60/4/46 66/4/46 67/6/46
f 49/2/47 51/1/47 71/1/47 72/2/47
f 57/2/48 58/3/48 69/3/48 63/2/48
f 58/3/49 54/3/49 61/3/49 69/3/49
f 54/3/50 49/2/50 72/2/50 61/3/50
f 60/4/51 50/1/51 70/1/51 66/4/51
f 55/6/52 53/7/52 68/7/52 64/6/52
f 53/7/19 52/7/19 65/7/19 68/7/19
f 51/1/53 59/5/53 62/5/53 71/1/53
f 52/7/54 56/6/54 67/6/54 65/7/54
f 74/1/34 73/2/34 79/2/34 80/1/34
f 73/2/35 76/3/35 82/3/35 79/2/35
f 84/4/36 74/1/36 80/1/36 83/5/36
f 78/6/37 84/4/37 83/5/37 77/6/37
f 75/7/38 78/6/38 77/6/38 81/7/38
f 87/1/39 95/1/39 96/2/39 86/2/39
f 86/2/40 96/2/40 85/3/40 93/3/40
f 91/4/41 94/5/41 95/1/41 87/1/41
f 89/6/42 92/6/42 94/5/42 91/4/42
f 90/7/43 88/7/43 92/6/43 89/6/43
f 83/5/55 94/5/55 92/6/55 77/6/55
f 74/1/56 87/1/56 86/2/56 73/2/56
f 78/6/57 89/6/57 91/4/57 84/4/57
f 79/2/58 96/2/58 95/1/58 80/1/58
f 73/2/59 86/2/59 93/3/59 76/3/59
f 76/3/49 93/3/49 85/3/49 82/3/49
f 82/3/60 85/3/60 96/2/60 79/2/60
f 84/4/61 91/4/61 87/1/61 74/1/61
f 77/6/62 92/6/62 88/7/62 81/7/62
f 81/7/19 88/7/19 90/7/19 75/7/19
f 80/1/63 95/1/63 94/5/63 83/5/63
f 75/7/64 90/7/64 89/6/64 78/6/64
