# Blender 4.0.2
# www.blender.org
mtllib doors_lower.mtl
o doors_lower
v 0.287906 0.000000 -1.000000
v 1.242670 0.000000 -1.000000
v 0.298765 0.000000 -0.990197
v 1.253529 0.000000 -0.990197
v -1.242670 0.000000 -1.000000
v -0.287906 0.000000 -1.000000
v -0.298765 0.000000 -0.990197
v -1.253529 0.000000 -0.990197
v 0.287906 0.000000 1.000000
v 1.242670 0.000000 1.000000
v 0.298765 0.000000 0.990197
v 1.253529 0.000000 0.990197
v -0.287906 0.000000 1.000000
v -1.242670 0.000000 1.000000
v -1.253529 0.000000 0.990197
v -0.298765 0.000000 0.990197
v 1.242669 -0.338447 -0.707106
v 0.287906 -0.338447 -0.707106
v 0.287906 -0.265916 -0.831469
v 1.242669 -0.183166 -0.923879
v 0.287906 -0.093377 -0.980784
v 1.242670 -0.265916 -0.831469
v 1.242669 -0.397971 -0.555570
v 0.287906 -0.397971 -0.555570
v 0.287906 -0.183166 -0.923879
v 1.242669 -0.093377 -0.980784
v 1.253528 -0.392299 -0.545767
v 0.298765 -0.332775 -0.697304
v 0.298765 -0.260244 -0.821666
v 1.253528 -0.087705 -0.970982
v 0.298765 -0.087705 -0.970982
v 0.298765 -0.177494 -0.914076
v 0.298765 -0.392299 -0.545767
v 1.253528 -0.177494 -0.914076
v 1.253529 -0.260244 -0.821666
v 1.253528 -0.332775 -0.697304
v -1.242669 -0.338447 -0.707106
v -0.287906 -0.397971 -0.555570
v -0.287906 -0.183166 -0.923879
v -0.287906 -0.093377 -0.980784
v -0.287906 -0.338447 -0.707106
v -0.287906 -0.265916 -0.831469
v -1.242670 -0.265916 -0.831469
v -1.242669 -0.397971 -0.555570
v -1.242669 -0.183166 -0.923879
v -1.242669 -0.093377 -0.980784
v -1.253528 -0.332775 -0.697304
v -1.253528 -0.392299 -0.545767
v -1.253528 -0.177494 -0.914076
v -0.298765 -0.260244 -0.821666
v -1.253528 -0.087705 -0.970982
v -0.298765 -0.087705 -0.970982
v -0.298765 -0.177494 -0.914076
v -0.298765 -0.392299 -0.545767
v -0.298765 -0.332775 -0.697304
v -1.253529 -0.260244 -0.821666
v 1.242669 -0.338447 0.707106
v 0.287906 -0.265916 0.831469
v 1.242670 -0.265916 0.831469
v 1.242669 -0.397971 0.555570
v 0.287906 -0.397971 0.555570
v 0.287906 -0.183166 0.923879
v 1.242669 -0.093377 0.980784
v 0.287906 -0.338447 0.707106
v 1.242669 -0.183166 0.923879
v 0.287906 -0.093377 0.980784
v 1.253528 -0.177494 0.914076
v 0.298765 -0.392299 0.545767
v 1.253528 -0.087705 0.970982
v 0.298765 -0.177494 0.914076
v 0.298765 -0.087705 0.970982
v 0.298765 -0.260244 0.821666
v 0.298765 -0.332775 0.697304
v 1.253528 -0.392299 0.545767
v 1.253529 -0.260244 0.821666
v 1.253528 -0.332775 0.697304
v -1.242669 -0.338447 0.707106
v -0.287906 -0.265916 0.831469
v -1.242670 -0.265916 0.831469
v -0.287906 -0.397971 0.555570
v -0.287906 -0.183166 0.923879
v -1.242669 -0.093377 0.980784
v -0.287906 -0.338447 0.707106
v -1.242669 -0.397971 0.555570
v -1.242669 -0.183166 0.923879
v -0.287906 -0.093377 0.980784
v -1.253528 -0.332775 0.697304
v -1.253529 -0.260244 0.821666
v -1.253528 -0.392299 0.545767
v -1.253528 -0.177494 0.914076
v -0.298765 -0.332775 0.697304
v -0.298765 -0.260244 0.821666
v -0.298765 -0.087705 0.970982
v -0.298765 -0.177494 0.914076
v -1.253528 -0.087705 0.970982
v -0.298765 -0.392299 0.545767
vn -0.0000 1.0000 -0.0000
vn -0.0000 -0.8638 -0.5038
vn -0.0000 -0.9308 -0.3656
vn -0.0000 -0.7450 -0.6671
vn -0.0000 -0.5353 -0.8447
vn -0.0000 -0.2016 -0.9795
vn -0.0000 0.8638 0.5038
vn -0.0000 0.9308 0.3656
vn -0.0000 0.7450 0.6671
vn -0.0000 0.5353 0.8447
vn -0.0000 0.2140 0.9768
vn 0.7215 -0.3706 -0.5848
vn -0.6714 0.6402 0.3734
vn -0.7215 0.3706 0.5848
vn 0.6714 -0.6402 -0.3734
vn -0.6323 0.7211 0.2832
vn -0.0000 -0.8656 0.5008
vn 0.6323 -0.7211 -0.2832
vn -0.7040 0.5291 0.4738
vn 0.6839 -0.1515 -0.7137
vn 0.7040 -0.5291 -0.4738
vn -0.6839 0.1515 0.7137
vn -0.7215 -0.3706 -0.5848
vn 0.6714 0.6402 0.3734
vn 0.7215 0.3706 0.5848
vn -0.6714 -0.6402 -0.3734
vn 0.6323 0.7211 0.2832
vn -0.6323 -0.7211 -0.2832
vn 0.7040 0.5291 0.4738
vn -0.6839 -0.1515 -0.7137
vn -0.7040 -0.5291 -0.4738
vn 0.6839 0.1515 0.7137
vn -0.0000 -0.8638 0.5038
vn -0.0000 -0.9308 0.3656
vn -0.0000 -0.7450 0.6671
vn -0.0000 -0.5353 0.8447
vn -0.0000 -0.2016 0.9795
vn -0.0000 0.9308 -0.3656
vn -0.0000 0.7450 -0.6671
vn -0.0000 0.5353 -0.8447
vn -0.0000 0.2140 -0.9768
vn 0.7215 -0.3706 0.5848
vn -0.6714 0.6402 -0.3734
vn -0.7215 0.3706 -0.5848
vn 0.6714 -0.6402 0.3734
vn -0.6323 0.7211 -0.2832
vn -0.0000 -0.8656 -0.5008
vn 0.6323 -0.7211 0.2832
vn -0.7040 0.5291 -0.4738
vn 0.6839 -0.1515 0.7137
vn 0.7040 -0.5291 0.4738
vn -0.6839 0.1515 -0.7137
vn -0.0000 0.8638 -0.5038
vn -0.7215 -0.3706 0.5848
vn 0.6714 0.6402 -0.3734
vn 0.7215 0.3706 -0.5848
vn -0.6714 -0.6402 0.3734
vn 0.6323 0.7211 -0.2832
vn -0.6323 -0.7211 0.2832
vn 0.7040 0.5291 -0.4738
vn -0.6839 -0.1515 0.7137
vn -0.7040 -0.5291 0.4738
vn 0.6839 0.1515 -0.7137
vt 0.750000 0.500000
vt 0.843750 0.500000
vt 0.875000 0.500000
vt 0.906250 0.500000
vt 0.812500 0.500000
vt 0.812500 0.500000
vt 0.781250 0.500000
s 0
usemtl Material.001
f 2/1/1 1/1/1 3/1/1 4/1/1
f 5/1/1 8/1/1 7/1/1 6/1/1
f 10/1/1 12/1/1 11/1/1 9/1/1
f 14/1/1 13/1/1 16/1/1 15/1/1
f 19/2/2 22/2/2 17/3/2 18/3/2
f 18/3/3 17/3/3 23/4/3 24/4/3
f 25/5/4 20/6/4 22/2/4 19/2/4
f 21/7/5 26/7/5 20/6/5 25/5/5
f 1/1/6 2/1/6 26/7/6 21/7/6
f 29/2/7 28/3/7 36/3/7 35/2/7
f 28/3/8 33/4/8 27/4/8 36/3/8
f 32/5/9 29/2/9 35/2/9 34/6/9
f 31/7/10 32/5/10 34/6/10 30/7/10
f 3/1/11 31/7/11 30/7/11 4/1/11
f 20/6/12 26/7/12 30/7/12 34/6/12
f 19/2/13 18/3/13 28/3/13 29/2/13
f 21/7/14 25/5/14 32/5/14 31/7/14
f 17/3/15 22/2/15 35/2/15 36/3/15
f 18/3/16 24/4/16 33/4/16 28/3/16
f 24/4/17 23/4/17 27/4/17 33/4/17
f 23/4/18 17/3/18 36/3/18 27/4/18
f 25/5/19 19/2/19 29/2/19 32/5/19
f 26/7/20 2/1/20 4/1/20 30/7/20
f 22/2/21 20/6/21 34/6/21 35/2/21
f 1/1/22 21/7/22 31/7/22 3/1/22
f 42/2/2 41/3/2 37/3/2 43/2/2
f 41/3/3 38/4/3 44/4/3 37/3/3
f 39/5/4 42/2/4 43/2/4 45/6/4
f 40/7/5 39/5/5 45/6/5 46/7/5
f 6/1/6 40/7/6 46/7/6 5/1/6
f 50/2/7 56/2/7 47/3/7 55/3/7
f 55/3/8 47/3/8 48/4/8 54/4/8
f 53/5/9 49/6/9 56/2/9 50/2/9
f 52/7/10 51/7/10 49/6/10 53/5/10
f 7/1/11 8/1/11 51/7/11 52/7/11
f 45/6/23 49/6/23 51/7/23 46/7/23
f 42/2/24 50/2/24 55/3/24 41/3/24
f 40/7/25 52/7/25 53/5/25 39/5/25
f 37/3/26 47/3/26 56/2/26 43/2/26
f 41/3/27 55/3/27 54/4/27 38/4/27
f 38/4/17 54/4/17 48/4/17 44/4/17
f 44/4/28 48/4/28 47/3/28 37/3/28
f 39/5/29 53/5/29 50/2/29 42/2/29
f 46/7/30 51/7/30 8/1/30 5/1/30
f 43/2/31 56/2/31 49/6/31 45/6/31
f 6/1/32 7/1/32 52/7/32 40/7/32
f 58/2/33 64/3/33 57/3/33 59/2/33
f 64/3/34 61/4/34 60/4/34 57/3/34
f 62/5/35 58/2/35 59/2/35 65/6/35
f 66/7/36 62/5/36 65/6/36 63/7/36
f 9/1/37 66/7/37 63/7/37 10/1/37
f 73/3/38 76/3/38 74/4/38 68/4/38
f 70/5/39 67/6/39 75/2/39 72/2/39
f 71/7/40 69/7/40 67/6/40 70/5/40
f 11/1/41 12/1/41 69/7/41 71/7/41
f 65/6/42 67/6/42 69/7/42 63/7/42
f 58/2/43 72/2/43 73/3/43 64/3/43
f 66/7/44 71/7/44 70/5/44 62/5/44
f 57/3/45 76/3/45 75/2/45 59/2/45
f 64/3/46 73/3/46 68/4/46 61/4/46
f 61/4/47 68/4/47 74/4/47 60/4/47
f 60/4/48 74/4/48 76/3/48 57/3/48
f 62/5/49 70/5/49 72/2/49 58/2/49
f 63/7/50 69/7/50 12/1/50 10/1/50
f 59/2/51 75/2/51 67/6/51 65/6/51
f 9/1/52 11/1/52 71/7/52 66/7/52
f 72/2/53 75/2/53 76/3/53 73/3/53
f 78/2/33 79/2/33 77/3/33 83/3/33
f 83/3/34 77/3/34 84/4/34 80/4/34
f 81/5/35 85/6/35 79/2/35 78/2/35
f 86/7/36 82/7/36 85/6/36 81/5/36
f 13/1/37 14/1/37 82/7/37 86/7/37
f 92/2/53 91/3/53 87/3/53 88/2/53
f 91/3/38 96/4/38 89/4/38 87/3/38
f 94/5/39 92/2/39 88/2/39 90/6/39
f 93/7/40 94/5/40 90/6/40 95/7/40
f 16/1/41 93/7/41 95/7/41 15/1/41
f 85/6/54 82/7/54 95/7/54 90/6/54
f 78/2/55 83/3/55 91/3/55 92/2/55
f 86/7/56 81/5/56 94/5/56 93/7/56
f 77/3/57 79/2/57 88/2/57 87/3/57
f 83/3/58 80/4/58 96/4/58 91/3/58
f 80/4/47 84/4/47 89/4/47 96/4/47
f 84/4/59 77/3/59 87/3/59 89/4/59
f 81/5/60 78/2/60 92/2/60 94/5/60
f 82/7/61 14/1/61 15/1/61 95/7/61
f 79/2/62 85/6/62 90/6/62 88/2/62
f 13/1/63 86/7/63 93/7/63 16/1/63
