# Blender 4.0.2
# www.blender.org
mtllib shield_pack.mtl
o Cube
v 0.325464 0.177553 -0.111761
v 0.325464 -0.177553 -0.111761
v 0.325464 0.177553 0.111761
v 0.325464 -0.177553 0.111761
v -0.325464 0.177553 -0.111761
v -0.325464 -0.177553 -0.111761
v -0.325464 0.177553 0.111761
v -0.325464 -0.177553 0.111761
vn -0.0000 1.0000 -0.0000
vn -0.0000 -0.0000 1.0000
vn -1.0000 -0.0000 -0.0000
vn -0.0000 -1.0000 -0.0000
vn 1.0000 -0.0000 -0.0000
vn -0.0000 -0.0000 -1.0000
vt 0.625000 0.500000
vt 0.875000 0.500000
vt 0.875000 0.750000
vt 0.625000 0.750000
vt 0.375000 0.750000
vt 0.625000 1.000000
vt 0.375000 1.000000
vt 0.375000 0.000000
vt 0.625000 0.000000
vt 0.625000 0.250000
vt 0.375000 0.250000
vt 0.125000 0.500000
vt 0.375000 0.500000
vt 0.125000 0.750000
s 0
usemtl Material
f 1/1/1 5/2/1 7/3/1 3/4/1
f 4/5/2 3/4/2 7/6/2 8/7/2
f 8/8/3 7/9/3 5/10/3 6/11/3
f 6/12/4 2/13/4 4/5/4 8/14/4
f 2/13/5 1/1/5 3/4/5 4/5/5
f 6/11/6 5/10/6 1/1/6 2/13/6
o Cube.001
v -0.239033 -0.009426 -0.042126
v -0.239033 0.135258 -0.042126
v -0.239033 -0.009426 -0.186810
v -0.239033 0.135258 -0.186810
v -0.015408 -0.009426 -0.042126
v -0.015408 0.135258 -0.042126
v -0.015408 -0.009426 -0.186810
v -0.015408 0.135258 -0.186810
vn -1.0000 -0.0000 -0.0000
vn -0.0000 -0.0000 -1.0000
vn 1.0000 -0.0000 -0.0000
vn -0.0000 -0.0000 1.0000
vn -0.0000 -1.0000 -0.0000
vn -0.0000 1.0000 -0.0000
vt 0.375000 0.000000
vt 0.625000 0.000000
vt 0.625000 0.250000
vt 0.375000 0.250000
vt 0.625000 0.500000
vt 0.375000 0.500000
vt 0.625000 0.750000
vt 0.375000 0.750000
vt 0.625000 1.000000
vt 0.375000 1.000000
vt 0.125000 0.500000
vt 0.125000 0.750000
vt 0.875000 0.500000
vt 0.875000 0.750000
s 0
usemtl Material.003
f 9/15/7 10/16/7 12/17/7 11/18/7
f 11/18/8 12/17/8 16/19/8 15/20/8
f 15/20/9 16/19/9 14/21/9 13/22/9
f 13/22/10 14/21/10 10/23/10 9/24/10
f 11/25/11 15/20/11 13/22/11 9/26/11
f 16/19/12 12/27/12 10/28/12 14/21/12
o Cylinder
v 0.057449 -0.003814 -0.104114
v 0.057449 -0.003814 -0.122213
v 0.069570 -0.001403 -0.104114
v 0.069570 -0.001403 -0.122213
v 0.079845 0.005463 -0.104114
v 0.079845 0.005463 -0.122213
v 0.086712 0.015739 -0.104114
v 0.086712 0.015739 -0.122213
v 0.089123 0.027860 -0.104114
v 0.089123 0.027860 -0.122213
v 0.086712 0.039982 -0.104114
v 0.086712 0.039982 -0.122213
v 0.079845 0.050257 -0.104114
v 0.079845 0.050257 -0.122213
v 0.069570 0.057123 -0.104114
v 0.069570 0.057123 -0.122213
v 0.057449 0.059534 -0.104114
v 0.057449 0.059534 -0.122213
v 0.045327 0.057123 -0.104114
v 0.045327 0.057123 -0.122213
v 0.035052 0.050257 -0.104114
v 0.035052 0.050257 -0.122213
v 0.028186 0.039982 -0.104114
v 0.028186 0.039982 -0.122213
v 0.025774 0.027860 -0.104114
v 0.025774 0.027860 -0.122213
v 0.028186 0.015739 -0.104114
v 0.028186 0.015739 -0.122213
v 0.035052 0.005463 -0.104114
v 0.035052 0.005463 -0.122213
v 0.045327 -0.001403 -0.104114
v 0.045327 -0.001403 -0.122213
vn 0.1951 -0.9808 -0.0000
vn 0.5556 -0.8315 -0.0000
vn 0.8315 -0.5556 -0.0000
vn 0.9808 -0.1951 -0.0000
vn 0.9808 0.1951 -0.0000
vn 0.8315 0.5556 -0.0000
vn 0.5556 0.8315 -0.0000
vn 0.1951 0.9808 -0.0000
vn -0.1951 0.9808 -0.0000
vn -0.5556 0.8315 -0.0000
vn -0.8315 0.5556 -0.0000
vn -0.9808 0.1951 -0.0000
vn -0.9808 -0.1951 -0.0000
vn -0.8315 -0.5556 -0.0000
vn -0.0000 -0.0000 -1.0000
vn -0.5556 -0.8315 -0.0000
vn -0.1951 -0.9808 -0.0000
vn -0.0000 -0.0000 1.0000
vt 1.000000 0.500000
vt 1.000000 1.000000
vt 0.937500 1.000000
vt 0.937500 0.500000
vt 0.875000 1.000000
vt 0.875000 0.500000
vt 0.812500 1.000000
vt 0.812500 0.500000
vt 0.750000 1.000000
vt 0.750000 0.500000
vt 0.687500 1.000000
vt 0.687500 0.500000
vt 0.625000 1.000000
vt 0.625000 0.500000
vt 0.562500 1.000000
vt 0.562500 0.500000
vt 0.500000 1.000000
vt 0.500000 0.500000
vt 0.437500 1.000000
vt 0.437500 0.500000
vt 0.375000 1.000000
vt 0.375000 0.500000
vt 0.312500 1.000000
vt 0.312500 0.500000
vt 0.250000 1.000000
vt 0.250000 0.500000
vt 0.187500 1.000000
vt 0.187500 0.500000
vt 0.125000 1.000000
vt 0.125000 0.500000
vt 0.341844 0.471731
vt 0.250000 0.490000
vt 0.158156 0.471731
vt 0.080294 0.419706
vt 0.028269 0.341844
vt 0.010000 0.250000
vt 0.028269 0.158156
vt 0.080294 0.080294
vt 0.158156 0.028269
vt 0.250000 0.010000
vt 0.341844 0.028269
vt 0.419706 0.080294
vt 0.471731 0.158156
vt 0.490000 0.250000
vt 0.471731 0.341844
vt 0.419706 0.419706
vt 0.062500 1.000000
vt 0.062500 0.500000
vt 0.000000 1.000000
vt 0.000000 0.500000
vt 0.750000 0.490000
vt 0.841844 0.471731
vt 0.919706 0.419706
vt 0.971731 0.341844
vt 0.990000 0.250000
vt 0.971731 0.158156
vt 0.919706 0.080294
vt 0.841844 0.028269
vt 0.750000 0.010000
vt 0.658156 0.028269
vt 0.580294 0.080294
vt 0.528269 0.158156
vt 0.510000 0.250000
vt 0.528269 0.341844
vt 0.580294 0.419706
vt 0.658156 0.471731
s 0
usemtl Material.002
f 17/29/13 18/30/13 20/31/13 19/32/13
f 19/32/14 20/31/14 22/33/14 21/34/14
f 21/34/15 22/33/15 24/35/15 23/36/15
f 23/36/16 24/35/16 26/37/16 25/38/16
f 25/38/17 26/37/17 28/39/17 27/40/17
f 27/40/18 28/39/18 30/41/18 29/42/18
f 29/42/19 30/41/19 32/43/19 31/44/19
f 31/44/20 32/43/20 34/45/20 33/46/20
f 33/46/21 34/45/21 36/47/21 35/48/21
f 35/48/22 36/47/22 38/49/22 37/50/22
f 37/50/23 38/49/23 40/51/23 39/52/23
f 39/52/24 40/51/24 42/53/24 41/54/24
f 41/54/25 42/53/25 44/55/25 43/56/25
f 43/56/26 44/55/26 46/57/26 45/58/26
f 20/59/27 18/60/27 48/61/27 46/62/27 44/63/27 42/64/27 40/65/27 38/66/27 36/67/27 34/68/27 32/69/27 30/70/27 28/71/27 26/72/27 24/73/27 22/74/27
f 45/58/28 46/57/28 48/75/28 47/76/28
f 47/76/29 48/75/29 18/77/29 17/78/29
f 17/79/30 19/80/30 21/81/30 23/82/30 25/83/30 27/84/30 29/85/30 31/86/30 33/87/30 35/88/30 37/89/30 39/90/30 41/91/30 43/92/30 45/93/30 47/94/30
o Cylinder.001
v 0.057449 0.070703 -0.104114
v 0.057449 0.070703 -0.122213
v 0.069570 0.073114 -0.104114
v 0.069570 0.073114 -0.122213
v 0.079845 0.079980 -0.104114
v 0.079845 0.079980 -0.122213
v 0.086712 0.090256 -0.104114
v 0.086712 0.090256 -0.122213
v 0.089123 0.102377 -0.104114
v 0.089123 0.102377 -0.122213
v 0.086712 0.114498 -0.104114
v 0.086712 0.114498 -0.122213
v 0.079845 0.124774 -0.104114
v 0.079845 0.124774 -0.122213
v 0.069570 0.131640 -0.104114
v 0.069570 0.131640 -0.122213
v 0.057449 0.134051 -0.104114
v 0.057449 0.134051 -0.122213
v 0.045327 0.131640 -0.104114
v 0.045327 0.131640 -0.122213
v 0.035052 0.124774 -0.104114
v 0.035052 0.124774 -0.122213
v 0.028186 0.114498 -0.104114
v 0.028186 0.114498 -0.122213
v 0.025774 0.102377 -0.104114
v 0.025774 0.102377 -0.122213
v 0.028186 0.090256 -0.104114
v 0.028186 0.090256 -0.122213
v 0.035052 0.079980 -0.104114
v 0.035052 0.079980 -0.122213
v 0.045327 0.073114 -0.104114
v 0.045327 0.073114 -0.122213
vn 0.1951 -0.9808 -0.0000
vn 0.5556 -0.8315 -0.0000
vn 0.8315 -0.5556 -0.0000
vn 0.9808 -0.1951 -0.0000
vn 0.9808 0.1951 -0.0000
vn 0.8315 0.5556 -0.0000
vn 0.5556 0.8315 -0.0000
vn 0.1951 0.9808 -0.0000
vn -0.1951 0.9808 -0.0000
vn -0.5556 0.8315 -0.0000
vn -0.8315 0.5556 -0.0000
vn -0.9808 0.1951 -0.0000
vn -0.9808 -0.1951 -0.0000
vn -0.8315 -0.5556 -0.0000
vn -0.0000 -0.0000 -1.0000
vn -0.5556 -0.8315 -0.0000
vn -0.1951 -0.9808 -0.0000
vn -0.0000 -0.0000 1.0000
vt 1.000000 0.500000
vt 1.000000 1.000000
vt 0.937500 1.000000
vt 0.937500 0.500000
vt 0.875000 1.000000
vt 0.875000 0.500000
vt 0.812500 1.000000
vt 0.812500 0.500000
vt 0.750000 1.000000
vt 0.750000 0.500000
vt 0.687500 1.000000
vt 0.687500 0.500000
vt 0.625000 1.000000
vt 0.625000 0.500000
vt 0.562500 1.000000
vt 0.562500 0.500000
vt 0.500000 1.000000
vt 0.500000 0.500000
vt 0.437500 1.000000
vt 0.437500 0.500000
vt 0.375000 1.000000
vt 0.375000 0.500000
vt 0.312500 1.000000
vt 0.312500 0.500000
vt 0.250000 1.000000
vt 0.250000 0.500000
vt 0.187500 1.000000
vt 0.187500 0.500000
vt 0.125000 1.000000
vt 0.125000 0.500000
vt 0.341844 0.471731
vt 0.250000 0.490000
vt 0.158156 0.471731
vt 0.080294 0.419706
vt 0.028269 0.341844
vt 0.010000 0.250000
vt 0.028269 0.158156
vt 0.080294 0.080294
vt 0.158156 0.028269
vt 0.250000 0.010000
vt 0.341844 0.028269
vt 0.419706 0.080294
vt 0.471731 0.158156
vt 0.490000 0.250000
vt 0.471731 0.341844
vt 0.419706 0.419706
vt 0.062500 1.000000
vt 0.062500 0.500000
vt 0.000000 1.000000
vt 0.000000 0.500000
vt 0.750000 0.490000
vt 0.841844 0.471731
vt 0.919706 0.419706
vt 0.971731 0.341844
vt 0.990000 0.250000
vt 0.971731 0.158156
vt 0.919706 0.080294
vt 0.841844 0.028269
vt 0.750000 0.010000
vt 0.658156 0.028269
vt 0.580294 0.080294
vt 0.528269 0.158156
vt 0.510000 0.250000
vt 0.528269 0.341844
vt 0.580294 0.419706
vt 0.658156 0.471731
s 0
usemtl Material.001
f 49/95/31 50/96/31 52/97/31 51/98/31
f 51/98/32 52/97/32 54/99/32 53/100/32
f 53/100/33 54/99/33 56/101/33 55/102/33
f 55/102/34 56/101/34 58/103/34 57/104/34
f 57/104/35 58/103/35 60/105/35 59/106/35
f 59/106/36 60/105/36 62/107/36 61/108/36
f 61/108/37 62/107/37 64/109/37 63/110/37
f 63/110/38 64/109/38 66/111/38 65/112/38
f 65/112/39 66/111/39 68/113/39 67/114/39
f 67/114/40 68/113/40 70/115/40 69/116/40
f 69/116/41 70/115/41 72/117/41 71/118/41
f 71/118/42 72/117/42 74/119/42 73/120/42
f 73/120/43 74/119/43 76/121/43 75/122/43
f 75/122/44 76/121/44 78/123/44 77/124/44
f 52/125/45 50/126/45 80/127/45 78/128/45 76/129/45 74/130/45 72/131/45 70/132/45 68/133/45 66/134/45 64/135/45 62/136/45 60/137/45 58/138/45 56/139/45 54/140/45
f 77/124/46 78/123/46 80/141/46 79/142/46
f 79/142/47 80/141/47 50/143/47 49/144/47
f 49/145/48 51/146/48 53/147/48 55/148/48 57/149/48 59/150/48 61/151/48 63/152/48 65/153/48 67/154/48 69/155/48 71/156/48 73/157/48 75/158/48 77/159/48 79/160/48
